HIERARCHY
ROOT Hips
{
	OFFSET -0.179506 -22.333345 2.821913
	CHANNELS 6 Xposition Yposition Zposition Zrotation Yrotation Xrotation 
	JOINT LeftUpLeg
	{
		OFFSET 6.951974 -9.140623 -0.681533
		CHANNELS 3 Zrotation Yrotation Xrotation
		JOINT LeftLeg
		{
			OFFSET 3.427654 -37.519855 -0.449580
			CHANNELS 3 Zrotation Yrotation Xrotation
			JOINT LeftFoot
			{
				OFFSET -1.359570 -39.796059 -4.369333
				CHANNELS 3 Zrotation Yrotation Xrotation
				JOINT LeftToe
				{
					OFFSET 2.635814 -5.579078 11.928840
					CHANNELS 3 Zrotation Yrotation Xrotation
					End Site
					{
						OFFSET 0.000000 0.000000 0.000000
					}
				}
			}
		}
	}
	JOINT RightUpLeg
	{
		OFFSET -6.767048 -9.052170 -0.431982
		CHANNELS 3 Zrotation Yrotation Xrotation
		JOINT RightLeg
		{
			OFFSET -3.829005 -38.256897 -0.885003
			CHANNELS 3 Zrotation Yrotation Xrotation
			JOINT RightFoot
			{
				OFFSET 1.577377 -39.841461 -4.231180
				CHANNELS 3 Zrotation Yrotation Xrotation
				JOINT RightToe
				{
					OFFSET -2.537174 -4.814398 12.334795
					CHANNELS 3 Zrotation Yrotation Xrotation
					End Site
					{
						OFFSET 0.000000 0.000000 0.000000
					}
				}
			}
		}
	}
	JOINT Spine
	{
		OFFSET -0.253288 10.896323 -2.669631
		CHANNELS 3 Zrotation Yrotation Xrotation
		JOINT Spine1
		{
			OFFSET 0.548704 13.518043 0.109247
			CHANNELS 3 Zrotation Yrotation Xrotation
			JOINT Spine2
			{
				OFFSET 0.145701 5.292222 2.542457
				CHANNELS 3 Zrotation Yrotation Xrotation
				JOINT Neck
				{
					OFFSET -0.277840 21.387037 -4.285703
					CHANNELS 3 Zrotation Yrotation Xrotation
					JOINT Head
					{
						OFFSET 0.515184 6.496960 5.134897
						CHANNELS 3 Zrotation Yrotation Xrotation
						End Site
						{
							OFFSET 0.000000 0.000000 0.000000
						}
					}
				}
				JOINT LeftShoulder
				{
					OFFSET 7.884473 12.174932 -3.408961
					CHANNELS 3 Zrotation Yrotation Xrotation
					JOINT LeftArm
					{
						OFFSET 9.097692 3.046888 -0.886815
						CHANNELS 3 Zrotation Yrotation Xrotation
						JOINT LeftForeArm
						{
							OFFSET 25.961220 -1.277207 -2.745643
							CHANNELS 3 Zrotation Yrotation Xrotation
							JOINT LeftHand
							{
								OFFSET 24.923361 0.898606 -0.117091
								CHANNELS 3 Zrotation Yrotation Xrotation
								End Site
								{
									OFFSET 0.000000 0.000000 0.000000
								}
							}
						}
					}
				}
				JOINT RightShoulder
				{
					OFFSET -8.175920 11.883285 -3.861528
					CHANNELS 3 Zrotation Yrotation Xrotation
					JOINT RightArm
					{
						OFFSET -9.601238 3.255117 -0.914307
						CHANNELS 3 Zrotation Yrotation Xrotation
						JOINT RightForeArm
						{
							OFFSET -25.374195 -1.332924 -2.140099
							CHANNELS 3 Zrotation Yrotation Xrotation
							JOINT RightHand
							{
								OFFSET -25.529810 0.777228 -0.555919
								CHANNELS 3 Zrotation Yrotation Xrotation
								End Site
								{
									OFFSET 0.000000 0.000000 0.000000
								}
							}
						}
					}
				}
			}
		}
	}
}
MOTION
Frames: 6
Frame Time: 0.033333
104.266769 -107.660583 86.668144 -142.977549 0.806919 97.272476 9.566059 -4.373058 -46.744976 -3.133957 14.851624 30.368387 -3.905461 8.131442 -16.991245 nan nan nan -0.777825 -1.153583 20.141234 1.988678 9.917006 4.690637 7.463822 5.486758 -19.522679 nan nan nan 1.116263 14.475934 26.235104 0.066021 -1.812063 2.536225 0.467405 2.234223 1.233510 -0.825680 4.910380 -22.722311 -1.824887 -10.312929 0.934470 -20.315455 3.686603 4.041762 -60.790832 17.009765 9.122140 -5.204402 -39.347286 24.543555 10.651688 -24.384985 -21.710962 19.183830 9.126677 -5.813607 51.891998 15.577024 13.216844 -62.571236 71.569823 -47.189665 -9.657847 28.421216 -29.227249 
102.933655 -106.382423 86.055077 -143.446341 0.555990 97.481340 10.132791 -4.303512 -48.003484 -3.609024 15.975317 32.025554 -4.280852 8.011961 -16.875552 nan nan nan -1.641414 -0.978689 20.542980 2.188147 10.232471 5.736474 8.011701 5.940091 -19.423043 nan nan nan 0.691598 15.111589 26.547525 -0.060213 -1.760644 2.470880 0.387958 2.245818 1.377266 -0.451291 5.005036 -23.035535 -1.842153 -10.498449 0.917802 -19.917041 3.825525 4.087778 -60.398837 17.520474 8.787846 -6.386268 -39.765922 25.469796 10.132557 -24.801720 -21.592361 18.539111 8.967313 -5.970238 52.068056 15.744817 13.164083 -67.647073 71.805632 -52.424729 -10.361682 28.298520 -29.196994 
101.527039 -105.089272 85.515099 -143.868815 0.168016 97.786421 10.528331 -4.449635 -49.135959 -4.021015 17.149672 33.840773 -4.451472 7.842322 -16.719465 nan nan nan -2.701066 -0.894290 20.747417 2.411914 10.201115 6.916073 8.644084 6.567888 -19.099312 nan nan nan 0.178010 15.822130 26.609246 -0.190134 -1.840600 2.769545 0.247650 2.232593 1.246942 -0.107091 5.049039 -23.043698 -1.669280 -10.697622 0.562529 -19.765044 3.912424 4.236312 -59.960449 18.050295 8.411065 -7.092946 -40.471559 25.722667 9.402506 -24.971840 -21.474843 18.280346 8.765412 -6.090601 52.073694 15.731627 12.885229 -72.703987 71.950609 -57.266649 -10.186429 28.381355 -28.708230 
100.070290 -103.762794 85.040741 -144.276842 -0.256254 98.195849 10.779651 -4.662330 -50.120297 -4.299627 18.455271 35.773910 -4.597260 7.727363 -16.708041 nan nan nan -3.850115 -0.896660 20.692837 2.685015 10.007358 8.383111 9.407389 7.391027 -18.338356 nan nan nan -0.435818 16.507323 26.426477 -0.307446 -2.042741 3.341971 0.036627 2.323573 1.007328 0.218160 5.105699 -22.902545 -1.380586 -11.083299 -0.147704 -19.747911 3.933047 4.273455 -59.397703 18.592875 8.273956 -7.549831 -41.253840 25.411971 8.791354 -24.877862 -21.376609 18.302397 8.510120 -6.230173 52.022267 15.490064 12.724133 -77.925232 71.989508 -62.036447 -9.837246 28.137764 -27.239111 
98.591904 -102.401146 84.648170 -144.500825 -0.394077 98.694691 11.043760 -4.627267 -51.006846 -4.554819 19.687610 37.877089 -4.625249 7.331871 -16.837360 nan nan nan -4.149701 -0.636733 20.684135 2.513321 9.821251 9.575355 10.134596 7.513449 -17.065465 nan nan nan -0.938190 16.976196 26.233488 -0.348327 -2.137822 3.756178 -0.040646 2.310471 0.658535 0.455533 4.881715 -22.653349 -1.047474 -11.091160 -1.011575 -19.921592 3.952190 4.469781 -59.002817 19.037228 8.090303 -7.665900 -41.885073 24.774711 8.335470 -24.878937 -21.101139 18.244761 8.330618 -6.193643 52.024610 15.008262 12.672662 -82.256959 71.923563 -66.284546 -10.254177 28.097948 -26.876505 
97.082939 -100.986084 84.337418 -144.674957 -0.245238 99.275126 11.364964 -4.334554 -51.729717 -4.644707 20.862984 40.214140 -3.917728 6.843608 -17.339817 nan nan nan -3.928126 -0.298824 20.415260 2.198271 9.580078 10.994943 10.833683 7.396297 -15.270150 nan nan nan -1.444424 17.363893 25.970243 -0.271019 -2.015990 3.942782 0.051876 2.165184 0.227243 0.686399 4.424017 -22.052145 -0.532849 -10.683475 -1.993994 -20.344437 4.056442 4.929168 -58.716267 19.225807 7.732879 -7.459030 -42.440110 24.067073 8.103716 -25.107101 -20.505278 18.415081 8.126040 -5.934149 51.876098 14.525069 12.560537 -84.973579 71.868158 -69.216470 -10.732220 28.602263 -27.888358 
